<svg width="95" height="94" viewBox="0 0 95 94" fill="none" xmlns="http://www.w3.org/2000/svg">
<path fill-rule="evenodd" clip-rule="evenodd" d="M0.706055 69.9873C1.02256 70.1226 1.34072 70.2548 1.66054 70.3841C8.14895 72.9655 14.7769 74.2911 21.5444 74.3609C28.3816 74.3609 35.0445 73.0702 41.5329 70.4888C48.0911 67.8376 54.0213 63.8608 59.3237 58.5585C64.5563 53.3259 68.4633 47.4654 71.0447 40.977C73.6959 34.4188 75.0215 27.7908 75.0214 21.0931C75.0215 14.2559 73.7307 7.59304 71.1493 1.10463C71.0041 0.731674 70.8546 0.360926 70.701 -0.0076122L59.3135 11.3799C60.2491 14.7776 60.7409 18.2247 60.7888 21.721C60.7888 26.7443 59.8818 31.6978 58.0679 36.5816C56.2539 41.3258 53.5329 45.5119 49.905 49.1398C46.2073 52.8375 41.9515 55.6282 37.1375 57.512C32.3235 59.2562 27.4049 60.1282 22.3816 60.1282C18.8852 60.0804 15.4382 59.5886 12.0404 58.6529L0.706055 69.9873Z" fill="white"/>
</svg>
