<svg xmlns="http://www.w3.org/2000/svg" viewBox="0 0 200 200">
  <defs>
    <linearGradient id="marmenGrad" x1="0%" y1="0%" x2="100%" y2="100%">
      <stop offset="0%" style="stop-color:#a855f7;stop-opacity:1" />
      <stop offset="100%" style="stop-color:#9333ea;stop-opacity:1" />
    </linearGradient>
  </defs>
  <!-- Body -->
  <ellipse cx="100" cy="125" rx="48" ry="55" fill="url(#marmenGrad)"/>
  <!-- Head -->
  <circle cx="100" cy="72" r="35" fill="url(#marmenGrad)"/>
  <!-- Multiple Ears -->
  <ellipse cx="72" cy="52" rx="10" ry="16" fill="#d8b4fe" transform="rotate(-20 72 52)"/>
  <ellipse cx="128" cy="52" rx="10" ry="16" fill="#d8b4fe" transform="rotate(20 128 52)"/>
  <ellipse cx="85" cy="45" rx="8" ry="14" fill="#d8b4fe" transform="rotate(-10 85 45)"/>
  <ellipse cx="115" cy="45" rx="8" ry="14" fill="#d8b4fe" transform="rotate(10 115 45)"/>
  <!-- Tails -->
  <path d="M 140 130 Q 160 135 165 150" stroke="url(#marmenGrad)" stroke-width="10" fill="none" stroke-linecap="round"/>
  <path d="M 145 135 Q 168 145 172 160" stroke="url(#marmenGrad)" stroke-width="8" fill="none" stroke-linecap="round"/>
  <!-- Eyes -->
  <circle cx="88" cy="70" r="6" fill="#1f2937"/>
  <circle cx="112" cy="70" r="6" fill="#1f2937"/>
  <!-- Smile -->
  <path d="M 85 82 Q 100 90 115 82" stroke="#1f2937" stroke-width="2" fill="none"/>
</svg>
