<svg xmlns="http://www.w3.org/2000/svg" viewBox="0 0 200 200">
  <defs>
    <linearGradient id="spinnerGrad" x1="0%" y1="0%" x2="100%" y2="100%">
      <stop offset="0%" style="stop-color:#64748b;stop-opacity:1" />
      <stop offset="100%" style="stop-color:#475569;stop-opacity:1" />
    </linearGradient>
  </defs>
  <!-- Web background -->
  <line x1="100" y1="40" x2="160" y2="80" stroke="#cbd5e1" stroke-width="1.5" opacity="0.5"/>
  <line x1="100" y1="40" x2="40" y2="80" stroke="#cbd5e1" stroke-width="1.5" opacity="0.5"/>
  <line x1="40" y1="120" x2="160" y2="120" stroke="#cbd5e1" stroke-width="1.5" opacity="0.5"/>
  <!-- Body (spider) -->
  <ellipse cx="100" cy="110" rx="42" ry="48" fill="url(#spinnerGrad)"/>
  <!-- Head -->
  <circle cx="100" cy="65" r="28" fill="url(#spinnerGrad)"/>
  <!-- Legs -->
  <path d="M 60 100 Q 30 95 25 90" stroke="#475569" stroke-width="5" fill="none" stroke-linecap="round"/>
  <path d="M 65 115 Q 35 120 28 125" stroke="#475569" stroke-width="5" fill="none" stroke-linecap="round"/>
  <path d="M 70 130 Q 40 145 35 155" stroke="#475569" stroke-width="5" fill="none" stroke-linecap="round"/>
  <path d="M 140 100 Q 170 95 175 90" stroke="#475569" stroke-width="5" fill="none" stroke-linecap="round"/>
  <path d="M 135 115 Q 165 120 172 125" stroke="#475569" stroke-width="5" fill="none" stroke-linecap="round"/>
  <path d="M 130 130 Q 160 145 165 155" stroke="#475569" stroke-width="5" fill="none" stroke-linecap="round"/>
  <!-- Eyes -->
  <circle cx="90" cy="62" r="5" fill="#e2e8f0"/>
  <circle cx="110" cy="62" r="5" fill="#e2e8f0"/>
  <circle cx="90" cy="62" r="3" fill="#1f2937"/>
  <circle cx="110" cy="62" r="3" fill="#1f2937"/>
</svg>
